<?xml version="1.0" standalone="no"?>
<!DOCTYPE svg PUBLIC "-//W3C//DTD SVG 20010904//EN"
 "http://www.w3.org/TR/2001/REC-SVG-20010904/DTD/svg10.dtd">
<svg version="1.0" xmlns="http://www.w3.org/2000/svg"
 width="402.000000pt" height="402.000000pt" viewBox="0 0 402.000000 402.000000"
 preserveAspectRatio="xMidYMid meet">
<metadata>
Created by potrace 1.11, written by Peter Selinger 2001-2013
</metadata>
<g transform="translate(0.000000,402.000000) scale(0.100000,-0.100000)"
fill="#000000" stroke="none">
<path d="M3430 2840 l0 -290 -305 0 -305 0 0 -290 0 -290 -305 0 -305 0 0
-290 0 -290 -305 0 -305 0 0 -290 0 -290 -555 0 -555 0 0 290 0 290 -245 0
-245 0 0 -45 0 -45 195 0 195 0 0 -285 0 -285 300 0 300 0 0 -250 0 -250 50 0
50 0 0 245 0 245 305 0 305 0 0 290 0 290 305 0 305 0 0 290 0 290 305 0 305
0 0 290 0 290 305 0 305 0 0 290 0 290 245 0 245 0 0 45 0 45 -295 0 -295 0 0
-290z"/>
</g>
</svg>
