<?xml version="1.0" standalone="no"?>
<!DOCTYPE svg PUBLIC "-//W3C//DTD SVG 20010904//EN"
 "http://www.w3.org/TR/2001/REC-SVG-20010904/DTD/svg10.dtd">
<svg version="1.0" xmlns="http://www.w3.org/2000/svg"
 width="402.000000pt" height="402.000000pt" viewBox="0 0 402.000000 402.000000"
 preserveAspectRatio="xMidYMid meet">
<metadata>
Created by potrace 1.11, written by Peter Selinger 2001-2013
</metadata>
<g transform="translate(0.000000,402.000000) scale(0.100000,-0.100000)"
fill="#000000" stroke="none">
<path d="M2720 2620 l0 -240 -387 -2 c-380 -3 -388 -3 -389 -23 -1 -11 -2
-111 -3 -222 l-1 -203 -402 -2 -403 -3 -3 -282 -2 -283 -443 -2 -442 -3 -3
-333 -2 -332 50 0 50 0 0 285 0 285 455 0 455 0 0 285 0 284 386 3 c368 3 386
4 400 22 11 16 14 63 14 223 l0 203 390 0 390 0 0 245 0 245 365 0 365 0 0 45
0 45 -420 0 -420 0 0 -240z"/>
</g>
</svg>
